# xmcd
#
# Track frame offsets: 
#        150
#        23332
#        54349
#        66656
#        89424
#        108961
#        128904
#        144982
#        178097
#        199873
#        218504
#        238876
#        261793
#        283141
#        299628
#        319774
#
# Disc length: 4794 seconds
#
# Revision: 0
# Processed by: cddbd v1.5.2PL0 Copyright (c) Steve Scherf et al.
# Submitted via: ExactAudioCopy v1.3
#
DISCID=f712b810
DTITLE=Various Artist - Akella Presents - vol.140 - Rockin' Blues  CD
DTITLE=2
DYEAR=2018
DGENRE=Blues
TTITLE0=Louis King - A Man Like Me
TTITLE1=Mike Dugan and The Blues Mission - Dark Factory
TTITLE2=Gary Cain - Thought I Heard You Say
TTITLE3=Timo Gross - Weep
TTITLE4=The Stella Vees - Tramp
TTITLE5=Doug Gray - Missing You
TTITLE6=Gregg Allman - I Love The Life I Live
TTITLE7=Blues Dragon - Livin' On Death Row
TTITLE8=Honey Island Swamp Band - One Shot
TTITLE9=Muskee - Broken Wings
TTITLE10=Tommy Castro - All About The Cash
TTITLE11=Willie May - Cocaine Hangover Blues
TTITLE12=Buddah Heads - Dodge The Rain
TTITLE13=The Blues Overdrive - Too Blind to See
TTITLE14=Brent Johnson - Glass Ceiling
TTITLE15=Buck69 - No Medicine Like the Blues
EXTD=
EXTT0=
EXTT1=
EXTT2=
EXTT3=
EXTT4=
EXTT5=
EXTT6=
EXTT7=
EXTT8=
EXTT9=
EXTT10=
EXTT11=
EXTT12=
EXTT13=
EXTT14=
EXTT15=
PLAYORDER=
